#!OML:ASF H:\ManfredETheater\Project 1\Capture day 1\Session 1\subject.ASF
:FULLY-SPECIFIED
:DEGREES
147
root -22.9481 15.991 -26.0644 -214.325 -62.6775 -149.161
lowerback 17.2143 1.65934 4.93453
upperback 1.79088 3.26256 5.66293
thorax -7.79188 1.36498 2.55675
lowerneck -16.9097 -4.31647 -4.76399
upperneck 19.0991 -5.16992 1.45287
head 8.94055 -2.66894 0.615445
rclavicle -2.62598e-014 -2.84759e-014
rhumerus -38.2807 5.67422 -64.9418
rradius 90.2131
rwrist -8.50497
rhand -29.9878 10.4906
rfingers 7.12502
rthumb -3.30566 -19.4635
lclavicle -2.62598e-014 -2.84759e-014
lhumerus -59.8879 -4.64387 92.0555
lradius 91.3381
lwrist 2.74725
lhand -21.1838 -14.6864
lfingers 7.12502
lthumb 5.1969 15.2299
rfemur -18.5659 -10.7591 17.7158
rtibia 84.6096
rfoot 0.827925 -9.45689
rtoes -36.3597
lfemur -46.2209 -3.84762 -18.5263
ltibia 42.0952
lfoot 10.1201 -7.70962
ltoes 11.3696
148
root -23.3281 15.9463 -26.3008 -215.211 -62.4347 -148.974
lowerback 17.1009 1.44308 5.04408
upperback 1.75263 2.991 5.69906
thorax -7.76339 1.23057 2.60017
lowerneck -16.6328 -4.00631 -4.55095
upperneck 19.5191 -4.82041 1.36237
head 9.01495 -2.51214 0.596318
rclavicle 4.74012e-014 -2.15464e-014
rhumerus -38.6876 5.81475 -65.5574
rradius 91.0184
rwrist -8.1644
rhand -29.7626 10.2888
rfingers 7.12502
rthumb -3.0882 -19.6685
lclavicle 4.74012e-014 -2.15464e-014
lhumerus -60.1568 -4.67333 91.947
lradius 91.425
lwrist 2.51567
lhand -21.2695 -14.6748
lfingers 7.12502
lthumb 5.11412 15.2435
rfemur -18.6324 -10.6907 17.8401
rtibia 85.7927
rfoot -0.0841685 -10.5424
rtoes -36.137
lfemur -45.5371 -3.22384 -18.7112
ltibia 43.4813
lfoot 9.90531 -7.79431
ltoes 15.8346
149
root -23.6983 15.8918 -26.5329 -216.055 -62.3912 -148.894
lowerback 17.1297 1.16365 5.06328
upperback 1.69033 2.6321 5.66072
thorax -7.83961 1.05592 2.63229
lowerneck -16.3467 -3.68219 -4.31406
upperneck 19.8991 -4.45794 1.28287
head 9.07413 -2.34626 0.578611
rclavicle 1.0138e-014 5.49888e-014
rhumerus -39.1904 5.84575 -66.2706
rradius 91.7943
rwrist -7.65969
rhand -29.5857 10.2016
rfingers 7.12502
rthumb -2.91734 -19.7582
lclavicle 1.0138e-014 5.49888e-014
lhumerus -60.3081 -4.74972 91.8323
lradius 91.4928
lwrist 2.34106
lhand -21.2215 -14.7463
lfingers 7.12502
lthumb 5.1605 15.1709
rfemur -18.8965 -10.772 17.8045
rtibia 86.9936
rfoot -1.02537 -11.3537
rtoes -35.7795
lfemur -44.9728 -2.81888 -19.0258
ltibia 45.599
lfoot 9.0031 -7.89143
ltoes 19.5324
150
root -24.0571 15.8284 -26.7605 -216.631 -62.6368 -149.165
lowerback 17.302 0.842236 4.84206
upperback 1.62316 2.18367 5.51057
thorax -8.00446 0.8467 2.69993
lowerneck -16.0809 -3.35364 -4.0448
upperneck 20.2349 -4.09258 1.20261
head 9.122 -2.17579 0.55505
rclavicle -4.34841e-015 7.20594e-015
rhumerus -39.7679 5.75753 -67.0674
rradius 92.5389
rwrist -7.05226
rhand -29.4768 10.2175
rfingers 7.12502
rthumb -2.81215 -19.7437
lclavicle -4.34841e-015 7.20594e-015
lhumerus -60.2967 -4.85792 91.7131
lradius 91.5211
lwrist 2.23156
lhand -21.1189 -14.8367
lfingers 7.12502
lthumb 5.2595 15.078
rfemur -19.3722 -10.992 17.4355
rtibia 88.2123
rfoot -1.96512 -11.8734
rtoes -35.4825
lfemur -44.4866 -2.71511 -19.5945
ltibia 48.2299
lfoot 7.51621 -7.92205
ltoes 21.9376
151
root -24.4037 15.7597 -26.9825 -216.857 -63.1649 -149.837
lowerback 17.5783 0.497471 4.37195
upperback 1.56714 1.65974 5.24976
thorax -8.2159 0.611235 2.80904
lowerneck -15.8943 -3.03471 -3.80553
upperneck 20.5427 -3.73379 1.16267
head 9.17769 -2.00451 0.547795
rclavicle -6.25085e-014 1.80894e-014
rhumerus -40.4036 5.52886 -67.9312
rradius 93.2524
rwrist -6.38028
rhand -29.4708 10.2914
rfingers 7.12502
rthumb -2.80641 -19.6699
lclavicle -6.25085e-014 1.80894e-014
lhumerus -60.029 -4.94438 91.5791
lradius 91.4239
lwrist 2.14565
lhand -20.9365 -14.9755
lfingers 7.12502
lthumb 5.43562 14.9347
rfemur -20.0923 -11.302 16.7337
rtibia 89.4156
rfoot -3.00074 -12.0909
rtoes -35.3561
lfemur -44.0597 -2.99939 -20.3765
ltibia 51.1628
lfoot 5.65902 -7.72035
ltoes 23.3584
152
root -24.7383 15.6873 -27.1982 -216.718 -63.895 -150.875
lowerback 17.9147 0.154471 3.72606
upperback 1.5324 1.09774 4.90244
thorax -8.43368 0.365253 2.93786
lowerneck -15.8183 -2.73927 -3.61189
upperneck 20.8255 -3.39445 1.15858
head 9.24834 -1.8396 0.556335
rclavicle -1.23837e-014 -1.63997e-014
rhumerus -41.0874 5.1513 -68.8211
rradius 93.927
rwrist -5.70397
rhand -29.553 10.394
rfingers 7.12502
rthumb -2.88579 -19.5662
lclavicle -1.23837e-014 -1.63997e-014
lhumerus -59.4585 -5.01213 91.4377
lradius 91.1568
lwrist 2.06102
lhand -20.7256 -15.1226
lfingers 7.12502
lthumb 5.63928 14.7823
rfemur -21.0961 -11.6174 15.8075
rtibia 90.5507
rfoot -4.1602 -12.0227
rtoes -35.3937
lfemur -43.6834 -3.54367 -21.3372
ltibia 54.2144
lfoot 3.60233 -7.34165
ltoes 23.9759
153
root -25.0624 15.6145 -27.4078 -216.232 -64.7223 -152.202
lowerback 18.2349 -0.164305 3.00318
upperback 1.52519 0.538255 4.5028
thorax -8.60635 0.124281 3.0573
lowerneck -15.8744 -2.4778 -3.48322
upperneck 21.0894 -3.08288 1.18687
head 9.34025 -1.68659 0.581997
rclavicle -4.23147e-014 2.98177e-015
rhumerus -41.8197 4.62139 -69.7143
rradius 94.5474
rwrist -5.0914
rhand -29.7395 10.4852
rfingers 7.12502
rthumb -3.06584 -19.4725
lclavicle -4.23147e-014 2.98177e-015
lhumerus -58.5566 -5.06223 91.2861
lradius 90.682
lwrist 1.96983
lhand -20.5326 -15.2755
lfingers 7.12502
lthumb 5.82559 14.6244
rfemur -22.4028 -11.8576 14.8129
rtibia 91.5378
rfoot -5.4289 -11.7266
rtoes -35.5509
lfemur -43.3461 -4.19636 -22.4034
ltibia 57.2274
lfoot 1.48158 -6.82882
ltoes 23.5707
154
root -25.3784 15.5462 -27.6109 -215.509 -65.5151 -153.672
lowerback 18.4799 -0.45121 2.32218
upperback 1.55736 0.0134236 4.11148
thorax -8.68886 -0.102255 3.15504
lowerneck -16.0782 -2.24972 -3.47112
upperneck 21.3384 -2.78397 1.24703
head 9.45783 -1.54256 0.635658
rclavicle 1.86662e-015 -4.77083e-015
rhumerus -42.5611 3.99233 -70.558
rradius 95.0763
rwrist -4.59105
rhand -30.0257 10.5312
rfingers 7.12502
rthumb -3.34231 -19.4224
lclavicle 1.86662e-015 -4.77083e-015
lhumerus -57.3022 -5.02633 91.1528
lradius 89.9701
lwrist 1.83003
lhand -20.3747 -15.4234
lfingers 7.12502
lthumb 5.97807 14.4723
rfemur -23.9855 -11.9246 13.9436
rtibia 92.2844
rfoot -6.7347 -11.2733
rtoes -35.9031
lfemur -42.995 -4.80058 -23.4605
ltibia 60.0684
lfoot -0.559284 -6.25039
ltoes 22.9719
155
root -25.6885 15.4871 -27.8069 -214.707 -66.155 -155.107
lowerback 18.6158 -0.686477 1.80887
upperback 1.62342 -0.420462 3.76004
thorax -8.67328 -0.293283 3.17607
lowerneck -16.3741 -2.06031 -3.53146
upperneck 21.5596 -2.50879 1.29714
head 9.58485 -1.41463 0.695281
rclavicle -4.03362e-014 6.02318e-014
rhumerus -43.329 3.2551 -71.3262
rradius 95.478
rwrist -4.2549
rhand -30.3998 10.506
rfingers 7.12502
rthumb -3.7035 -19.4416
lclavicle -4.03362e-014 6.02318e-014
lhumerus -55.7544 -4.94598 91.0381
lradius 89.0449
lwrist 1.61971
lhand -20.2875 -15.5724
lfingers 7.12502
lthumb 6.06225 14.3208
rfemur -25.7847 -11.7467 13.3603
rtibia 92.7044
rfoot -7.97799 -10.7446
rtoes -36.4476
lfemur -42.574 -5.25379 -24.3682
ltibia 62.6469
lfoot -2.63864 -5.75194
ltoes 22.8283
156
root -25.9939 15.4398 -27.9964 -213.932 -66.5981 -156.408
lowerback 18.6367 -0.87145 1.4798
upperback 1.71295 -0.754804 3.47927
thorax -8.57199 -0.445266 3.14031
lowerneck -16.7044 -1.89635 -3.64848
upperneck 21.744 -2.2373 1.3034
head 9.70592 -1.29707 0.749689
rclavicle 5.42853e-014 -3.99557e-014
rhumerus -44.1083 2.46917 -72.003
rradius 95.7167
rwrist -4.12592
rhand -30.8281 10.4005
rfingers 7.12502
rthumb -4.11711 -19.5394
lclavicle 5.42853e-014 -3.99557e-014
lhumerus -54.0359 -4.82097 90.9714
lradius 88.009
lwrist 1.29503
lhand -20.388 -15.6658
lfingers 7.12502
lthumb 5.96527 14.2302
rfemur -27.7235 -11.3061 13.1071
rtibia 92.742
rfoot -9.08937 -10.1871
rtoes -37.0622
lfemur -42.0203 -5.44105 -25.1119
ltibia 64.9158
lfoot -4.70031 -5.33667
ltoes 22.701
157
root -26.2951 15.4052 -28.1798 -213.271 -66.8669 -157.518
lowerback 18.5791 -1.01568 1.31868
upperback 1.81067 -1.00031 3.27361
thorax -8.42359 -0.561808 3.06513
lowerneck -17.02 -1.74555 -3.79093
upperneck 21.9037 -1.95607 1.23266
head 9.815 -1.18636 0.783928
rclavicle 2.13181e-014 -2.76311e-014
rhumerus -44.8884 1.67553 -72.5794
rradius 95.7654
rwrist -4.2198
rhand -31.2616 10.2322
rfingers 7.12502
rthumb -4.53577 -19.6992
lclavicle 2.13181e-014 -2.76311e-014
lhumerus -52.229 -4.61768 90.9569
lradius 86.9143
lwrist 0.797122
lhand -20.6255 -15.7197
lfingers 7.12502
lthumb 5.73589 14.1827
rfemur -29.6927 -10.6132 13.1537
rtibia 92.4087
rfoot -10.0695 -9.64268
rtoes -37.6899
lfemur -41.3505 -5.35625 -25.6904
ltibia 67.0189
lfoot -6.82879 -5.02304
ltoes 23.1804
158
root -26.5916 15.3826 -28.358 -212.867 -66.9785 -158.32
lowerback 18.4922 -1.13052 1.32458
upperback 1.89885 -1.1688 3.14766
thorax -8.27498 -0.647221 2.96113
lowerneck -17.2532 -1.59156 -3.89013
upperneck 22.0315 -1.65712 1.0493
head 9.89576 -1.07837 0.775065
rclavicle 4.70933e-014 -5.48646e-014
rhumerus -45.6768 0.907689 -73.0725
rradius 95.6272
rwrist -4.54109
rhand -31.6481 9.98944
rfingers 7.12502
rthumb -4.90895 -19.9337
lclavicle 4.70933e-014 -5.48646e-014
lhumerus -50.4543 -4.34953 91.0086
lradius 85.8644
lwrist 0.142429
lhand -21.1005 -15.6955
lfingers 7.12502
lthumb 5.27731 14.2188
rfemur -31.5906 -9.7209 13.4894
rtibia 91.6673
rfoot -10.8519 -9.13728
rtoes -38.3524
lfemur -40.5014 -5.03979 -26.0572
ltibia 68.7999
lfoot -8.91362 -4.84866
ltoes 23.729
